<svg width="303" height="100" viewBox="0 0 303 100" fill="none" xmlns="http://www.w3.org/2000/svg">
<g clip-path="url(#clip0_327_1587)">
<path d="M48.7869 95.0788C48.1743 95.0578 47.5713 95.0293 46.9625 94.9838C46.6916 94.9629 46.4148 94.9439 46.1439 94.9192C45.726 94.8851 45.3158 94.8396 44.8978 94.7902C44.7126 94.7692 44.5314 94.7446 44.3444 94.72C43.8617 94.6593 43.3846 94.5909 42.9075 94.5093C42.7128 94.4789 42.5105 94.4447 42.314 94.4087C41.4306 94.255 40.5508 94.0747 39.6863 93.8697C39.4401 93.8107 39.194 93.7501 38.9478 93.6855C38.7379 93.6361 38.5204 93.5811 38.3162 93.5204C37.8295 93.3913 37.3468 93.2509 36.864 93.1009C36.6522 93.0364 36.4423 92.9718 36.2304 92.9017C35.9691 92.822 35.7075 92.7309 35.4462 92.6417C35.2248 92.5658 35.0034 92.4919 34.7839 92.4064C34.6389 92.357 34.4976 92.3077 34.3565 92.2527C34.1047 92.1635 33.8584 92.0685 33.6122 91.9679C32.6181 91.5826 31.6428 91.1575 30.6888 90.704C30.4483 90.5882 30.208 90.4743 29.9712 90.3547C29.0476 89.8992 28.1431 89.4095 27.2538 88.8858C27.0172 88.7511 26.7825 88.6106 26.5497 88.4663C23.8227 86.8075 21.2752 84.8585 18.9547 82.655C18.758 82.4747 18.5672 82.2906 18.3822 82.1008C18.1914 81.9167 18.0006 81.725 17.8194 81.5372C17.6286 81.353 17.4473 81.1633 17.2661 80.9679C17.121 80.818 16.9741 80.6585 16.8328 80.5029C16.2509 79.8727 15.6936 79.2294 15.1497 78.569C14.8081 78.159 14.4761 77.7396 14.1555 77.3164C13.9895 77.1001 13.8293 76.8855 13.6728 76.6711C13.5126 76.4567 13.3522 76.2365 13.2015 76.0164C13.0565 75.8171 12.9152 75.6159 12.7798 75.411C12.6137 75.1718 12.4535 74.9251 12.2931 74.6822C12.1423 74.4564 11.9973 74.2323 11.8562 74.0028C11.7053 73.7731 11.5642 73.5436 11.4288 73.3139C11.007 72.6192 10.6044 71.9152 10.2189 71.1901C10.0891 70.949 9.96316 70.71 9.84292 70.4651C9.71313 70.226 9.5911 69.9792 9.47652 69.7344C9.35628 69.4857 9.23603 69.239 9.11967 68.9904L34.9634 40.4215C43.4037 32.0271 57.1375 32.0271 65.576 40.4215L91.4254 68.9904C90.8719 70.1748 90.2652 71.3382 89.6125 72.4731C89.5074 72.6533 89.4006 72.8336 89.2899 73.014C89.1945 73.1735 89.0991 73.329 89.0036 73.4885C88.8376 73.7638 88.6659 74.0332 88.4922 74.3027C83.9467 81.3534 77.5521 86.9995 69.9954 90.6264C63.826 93.5984 57.1872 95.1072 50.2639 95.1072C49.7658 95.1072 49.2735 95.0977 48.7812 95.0826M4.91758 49.9981C4.91758 25.1263 25.2616 4.89662 50.2677 4.89662C75.2737 4.89662 95.6273 25.1263 95.6273 49.9981C95.6273 54.8149 94.8793 59.5161 93.3909 64.0235L69.0527 39.8216C58.6947 29.5199 41.8465 29.5199 31.4884 39.8216L7.15028 64.0293C5.66381 59.5219 4.91563 54.8169 4.91563 50M0 49.9981C0 56.1984 1.1259 62.2338 3.3395 67.954C3.52465 68.44 3.72112 68.9238 3.92341 69.4022C11.8045 87.9883 29.9942 100 50.2677 100C57.9428 100 65.303 98.3261 72.1441 95.0237C80.5119 91.0059 87.5953 84.7561 92.6333 76.9425C94.1751 74.5492 95.5224 72.0118 96.6216 69.3983L96.677 69.2636C96.8526 68.8536 97.0186 68.4437 97.1751 68.0337C99.4115 62.2869 100.545 56.2269 100.545 49.9981C100.545 22.4293 77.9911 0 50.2678 0C22.5445 0 0.000161837 22.4274 0.000161837 49.9981H0Z" fill="url(#paint0_linear_327_1587)"/>
<path d="M174.213 74.3298H167.301C163.622 64.9869 159.99 55.7073 156.375 46.4753C152.759 37.2591 149.16 27.9637 145.544 18.6208L122.578 74.3299H119.774L146.198 9.99048H149.096C153.269 20.7586 157.442 31.4791 161.615 42.1523C165.788 52.8253 169.993 63.546 174.213 74.3142" fill="#1C2F2F"/>
<path d="M208.01 7.66259C212.677 7.66259 217.041 8.53352 221.087 10.2596C225.132 11.9857 228.684 14.3769 231.726 17.4014L229.018 20.5526C226.406 17.4014 223.284 14.8836 219.685 13.0308C216.069 11.178 212.183 10.2438 208.01 10.2438C203.837 10.2438 200.509 11.0515 197.084 12.6508C193.66 14.266 190.666 16.4513 188.117 19.2384C185.569 22.0254 183.562 25.2875 182.097 29.0405C180.632 32.7776 179.899 36.7999 179.899 41.0596C179.899 45.3193 180.632 49.3257 182.097 53.0312C183.562 56.7525 185.569 59.9989 188.117 62.7858C190.666 65.5728 193.66 67.774 197.084 69.3735C200.509 70.9886 204.156 71.7804 208.01 71.7804C211.865 71.7804 215.257 71.0204 218.57 69.5001C221.867 67.9799 224.782 65.9213 227.298 63.3242C229.815 60.7272 231.853 57.6552 233.414 54.1397C234.975 50.6085 235.835 46.8078 236.026 42.7224H208.01V40.1254H241.632V41.0598C241.632 45.6362 240.741 49.9594 238.973 54.0132C237.205 58.0671 234.8 61.6142 231.789 64.6388C228.763 67.6792 225.227 70.0704 221.15 71.828C217.073 73.5858 212.693 74.4726 208.026 74.4726C203.36 74.4726 198.98 73.5858 194.902 71.828C190.825 70.0702 187.273 67.6633 184.263 64.6388C181.237 61.6142 178.848 58.0671 177.08 54.0132C175.312 49.9594 174.42 45.6362 174.42 41.0598C174.42 36.4833 175.312 32.0652 177.08 28.0113C178.848 23.9575 181.253 20.4261 184.263 17.4333C187.289 14.4245 190.825 12.0493 194.902 10.2915C198.98 8.53368 203.36 7.64697 208.026 7.64697" fill="#411F47"/>
<path d="M248.832 9.99023H270.684C275.111 9.99023 279.268 10.8454 283.202 12.5398C287.12 14.2499 290.545 16.5462 293.475 19.4599C296.406 22.3737 298.715 25.7783 300.435 29.6738C302.155 33.5692 303 37.7499 303 42.1996C303 46.6492 302.14 50.8299 300.435 54.7254C298.715 58.6208 296.406 62.0255 293.475 64.9392C290.545 67.853 287.12 70.149 283.202 71.8593C279.284 73.5695 275.111 74.4089 270.684 74.4089H248.832V9.99023ZM255.266 12.5873V71.8118H267.594C271.703 71.8118 275.541 71.0359 279.125 69.4841C282.709 67.9322 285.846 65.8103 288.554 63.1183C291.262 60.4263 293.396 57.2908 294.957 53.6962C296.518 50.1016 297.298 46.2693 297.298 42.1838C297.298 38.0982 296.517 34.266 294.957 30.6714C293.396 27.0767 291.262 23.9413 288.554 21.2493C285.846 18.5573 282.709 16.4353 279.125 14.8835C275.542 13.3315 271.703 12.5557 267.594 12.5557H255.266V12.5873Z" fill="#411F47"/>
<path d="M131.72 89.1518V95.4067H130.605L130.493 92.9838C129.633 94.5673 128.104 95.6126 125.938 95.6126C122.418 95.6126 119.774 92.8889 119.774 89.5793C119.774 86.2697 122.562 83.3718 126.018 83.3718C129.474 83.3718 131.003 84.8446 131.672 87.5049H130.191C129.601 85.5888 127.786 84.6703 126.034 84.6703C123.278 84.6703 121.16 86.7289 121.16 89.595C121.16 92.4612 123.135 94.3457 125.922 94.3457C128.71 94.3457 129.904 92.6513 130.223 90.4502V89.1833H131.688L131.72 89.1516V89.1518Z" fill="#D2AD6C"/>
<path d="M147.583 89.4845C147.583 92.889 144.812 95.6127 141.388 95.6127C137.963 95.6127 135.192 92.889 135.192 89.4845C135.192 86.0799 137.963 83.3562 141.388 83.3562C144.812 83.3562 147.583 86.0799 147.583 89.4845ZM146.182 89.4845C146.182 86.8082 144.079 84.6389 141.388 84.6389C138.696 84.6389 136.594 86.7925 136.594 89.4845C136.594 92.1764 138.696 94.33 141.388 94.33C144.079 94.33 146.182 92.1764 146.182 89.4845Z" fill="#D2AD6C"/>
<path d="M159.146 94.1401V95.407H151.199V83.562H152.584V94.1243H159.146V94.1401Z" fill="#D2AD6C"/>
<path d="M172.668 89.4051C172.668 92.9206 170.056 95.4067 166.377 95.4067H162.188V83.5618H166.377C170.057 83.5618 172.668 85.9846 172.668 89.3892V89.4051ZM171.251 89.4051C171.251 86.7606 169.212 84.8446 166.377 84.8446H163.574V94.14H166.377C169.212 94.14 171.251 92.1763 171.251 89.4051Z" fill="#D2AD6C"/>
<path d="M190.746 95.407L189.185 94.0134C188.15 95.0744 186.892 95.6286 185.347 95.6286C182.814 95.6286 181.126 94.1875 181.126 92.1289C181.126 90.0703 182.161 89.4052 183.547 88.851C182.798 87.9959 182.448 87.2833 182.448 86.4124C182.448 84.5913 183.913 83.2927 185.92 83.2927C187.927 83.2927 189.137 84.4804 189.376 86.4599H188.038C187.863 85.1455 187.019 84.4804 185.904 84.4804C184.79 84.4804 183.834 85.2881 183.834 86.4441C183.834 87.6001 184.885 88.566 186.876 90.308L189.058 92.2717L190.921 89.6114H192.323L190.029 92.9527C189.997 92.9844 189.982 93.0161 189.934 93.0794L192.53 95.3913H190.746V95.4071L190.746 95.407ZM188.309 93.2216L185.745 90.9414C185.235 90.4822 184.789 90.0862 184.391 89.722C183.244 90.1812 182.448 91.0046 182.448 92.1289C182.448 93.2532 183.642 94.4567 185.378 94.4567C187.115 94.4567 187.481 94.0134 188.309 93.2216Z" fill="#D2AD6C"/>
<path d="M211.61 89.4051C211.61 92.9206 208.998 95.4067 205.319 95.4067H201.13V83.5618H205.319C208.998 83.5618 211.61 85.9846 211.61 89.3892V89.4051ZM210.193 89.4051C210.193 86.7606 208.154 84.8446 205.319 84.8446H202.516V94.14H205.319C208.154 94.14 210.193 92.1763 210.193 89.4051Z" fill="#D2AD6C"/>
<path d="M216.612 83.5779V95.4228H215.226V83.5779H216.612Z" fill="#D2AD6C"/>
<path d="M228.716 92.0974H222.568L221.103 95.407H219.622L225.005 83.562H226.311L231.694 95.407H230.213L228.748 92.0974H228.716ZM228.159 90.8622L225.642 85.1931L223.125 90.8622H228.174H228.159Z" fill="#D2AD6C"/>
<path d="M246.316 95.407H244.93V86.5865L240.948 93.1425H240.04L236.027 86.5391L236.058 95.407H234.673V83.562H235.724L240.486 91.4638L245.249 83.562H246.3V95.407H246.316Z" fill="#D2AD6C"/>
<path d="M262.306 89.4845C262.306 92.889 259.535 95.6127 256.111 95.6127C252.686 95.6127 249.915 92.889 249.915 89.4845C249.915 86.0799 252.686 83.3562 256.111 83.3562C259.535 83.3562 262.306 86.0799 262.306 89.4845ZM260.905 89.4845C260.905 86.8082 258.802 84.6389 256.111 84.6389C253.419 84.6389 251.317 86.7925 251.317 89.4845C251.317 92.1764 253.419 94.33 256.111 94.33C258.802 94.33 260.905 92.1764 260.905 89.4845Z" fill="#D2AD6C"/>
<path d="M276.084 83.5779V95.4228H274.937L267.324 86.0957V95.4228H265.938V83.5779H267.053L274.698 93.0317V83.5779H276.084Z" fill="#D2AD6C"/>
<path d="M290.689 89.4051C290.689 92.9206 288.076 95.4067 284.397 95.4067H280.208V83.5618H284.397C288.077 83.5618 290.689 85.9846 290.689 89.3892V89.4051ZM289.271 89.4051C289.271 86.7606 287.232 84.8446 284.397 84.8446H281.594V94.14H284.397C287.232 94.14 289.271 92.1763 289.271 89.4051Z" fill="#D2AD6C"/>
<path d="M302.984 86.8242H301.599C301.328 85.4148 300.34 84.5439 298.397 84.5439C296.454 84.5439 295.514 85.3199 295.514 86.6658C295.514 88.0117 296.263 88.2967 297.68 88.5818L299.624 88.946C301.758 89.3578 302.968 90.3237 302.968 92.0657C302.968 93.8077 301.185 95.6129 298.509 95.6129C295.833 95.6129 293.795 94.1718 293.54 91.6065H294.909C295.196 93.3801 296.47 94.3777 298.589 94.3777C300.707 94.3777 301.567 93.5542 301.567 92.2241C301.567 90.8939 300.914 90.5455 299.417 90.2921L297.187 89.8487C295.069 89.4527 294.049 88.3759 294.049 86.745C294.049 85.114 295.769 83.3562 298.318 83.3562C300.866 83.3562 302.698 84.3855 302.984 86.8242H302.984Z" fill="#D2AD6C"/>
</g>
<defs>
<linearGradient id="paint0_linear_327_1587" x1="0" y1="50" x2="100.545" y2="50" gradientUnits="userSpaceOnUse">
<stop stop-color="#F9C5C5"/>
<stop offset="1" stop-color="#DD8796"/>
</linearGradient>
<clipPath id="clip0_327_1587">
<rect width="303" height="100" fill="white"/>
</clipPath>
</defs>
</svg>
