<svg width="49" height="50" viewBox="0 0 49 50" fill="none" xmlns="http://www.w3.org/2000/svg">
<path d="M23.5079 47.5394C23.2127 47.5289 22.9221 47.5147 22.6288 47.4919C22.4982 47.4814 22.3649 47.4719 22.2344 47.4596C22.033 47.4426 21.8353 47.4198 21.6339 47.3951C21.5447 47.3846 21.4574 47.3723 21.3673 47.36C21.1347 47.3297 20.9048 47.2954 20.6749 47.2546C20.5811 47.2394 20.4836 47.2224 20.3889 47.2043C19.9632 47.1275 19.5393 47.0374 19.1228 46.9348C19.0042 46.9054 18.8855 46.875 18.7669 46.8428C18.6658 46.8181 18.561 46.7905 18.4626 46.7602C18.2281 46.6956 17.9955 46.6255 17.7629 46.5505C17.6608 46.5182 17.5596 46.4859 17.4576 46.4508C17.3316 46.411 17.2056 46.3654 17.0797 46.3209C16.973 46.2829 16.8663 46.2459 16.7606 46.2032C16.6907 46.1785 16.6226 46.1539 16.5546 46.1263C16.4333 46.0818 16.3146 46.0343 16.196 45.984C15.717 45.7913 15.247 45.5788 14.7873 45.352C14.6715 45.2941 14.5557 45.2371 14.4416 45.1773C13.9965 44.9496 13.5607 44.7048 13.1322 44.4429C13.0182 44.3755 12.9051 44.3053 12.7929 44.2332C11.4789 43.4038 10.2514 42.4293 9.13327 41.3275C9.03852 41.2374 8.94658 41.1453 8.85745 41.0504C8.76551 40.9584 8.67357 40.8625 8.58623 40.7686C8.49429 40.6765 8.40696 40.5816 8.31962 40.4839C8.24975 40.409 8.17894 40.3293 8.11086 40.2514C7.83044 39.9364 7.56195 39.6147 7.29986 39.2845C7.13524 39.0795 6.97531 38.8698 6.82083 38.6582C6.74082 38.55 6.66362 38.4428 6.58821 38.3356C6.51101 38.2284 6.43373 38.1183 6.36113 38.0082C6.29126 37.9085 6.22318 37.808 6.15791 37.7055C6.0779 37.5859 6.0007 37.4625 5.92342 37.3411C5.85074 37.2282 5.78087 37.1162 5.71287 37.0014C5.6402 36.8866 5.5722 36.7718 5.50693 36.657C5.30371 36.3096 5.10969 35.9576 4.92394 35.595C4.8614 35.4745 4.80073 35.355 4.74279 35.2326C4.68025 35.113 4.62145 34.9896 4.56624 34.8672C4.5083 34.7429 4.45037 34.6195 4.3943 34.4952L16.8471 20.2107C20.914 16.0136 27.5316 16.0136 31.5977 20.2107L44.0532 34.4952C43.7865 35.0874 43.4941 35.6691 43.1796 36.2365C43.129 36.3267 43.0775 36.4168 43.0242 36.507C42.9782 36.5868 42.9323 36.6645 42.8862 36.7443C42.8062 36.8819 42.7235 37.0166 42.6398 37.1513C40.4496 40.6767 37.3683 43.4998 33.7272 45.3132C30.7545 46.7992 27.5555 47.5536 24.2196 47.5536C23.9796 47.5536 23.7423 47.5489 23.5051 47.5413M2.36952 24.999C2.36952 12.5631 12.1723 2.44831 24.2214 2.44831C36.2705 2.44831 46.0778 12.5631 46.0778 24.999C46.0778 27.4074 45.7174 29.758 45.0002 32.0117L33.2729 19.9108C28.2819 14.76 20.1637 14.76 15.1726 19.9108L3.44535 32.0146C2.72909 29.7609 2.36859 27.4085 2.36859 25M0 24.999C0 28.0992 0.542512 31.1169 1.60913 33.977C1.69834 34.22 1.79301 34.4619 1.89049 34.7011C5.688 43.9942 14.4527 50 24.2214 50C27.9196 50 31.4661 49.163 34.7625 47.5119C38.7945 45.503 42.2077 42.3781 44.6352 38.4713C45.3781 37.2746 46.0273 36.0059 46.557 34.6992L46.5836 34.6318C46.6682 34.4268 46.7482 34.2218 46.8237 34.0169C47.9013 31.1435 48.4474 28.1135 48.4474 24.999C48.4474 11.2146 37.5799 0 24.2215 0C10.863 0 7.79808e-05 11.2137 7.79808e-05 24.999H0Z" fill="url(#paint0_linear_887_101)"/>
<defs>
<linearGradient id="paint0_linear_887_101" x1="0" y1="25" x2="48.4474" y2="25" gradientUnits="userSpaceOnUse">
<stop stop-color="#F9C5C5"/>
<stop offset="1" stop-color="#DD8796"/>
</linearGradient>
</defs>
</svg>
