<svg width="146" height="50" viewBox="0 0 146 50" fill="none" xmlns="http://www.w3.org/2000/svg">
<g clip-path="url(#clip0_872_120)">
<path d="M23.5079 47.5394C23.2127 47.5289 22.9221 47.5147 22.6288 47.4919C22.4982 47.4814 22.3649 47.4719 22.2344 47.4596C22.033 47.4426 21.8353 47.4198 21.6339 47.3951C21.5447 47.3846 21.4574 47.3723 21.3673 47.36C21.1347 47.3297 20.9048 47.2954 20.6749 47.2546C20.5811 47.2394 20.4836 47.2224 20.3889 47.2043C19.9632 47.1275 19.5393 47.0374 19.1228 46.9348C19.0042 46.9054 18.8855 46.875 18.7669 46.8428C18.6658 46.8181 18.561 46.7905 18.4626 46.7602C18.2281 46.6956 17.9955 46.6255 17.7629 46.5505C17.6608 46.5182 17.5596 46.4859 17.4576 46.4508C17.3316 46.411 17.2056 46.3654 17.0797 46.3209C16.973 46.2829 16.8663 46.2459 16.7606 46.2032C16.6907 46.1785 16.6226 46.1539 16.5546 46.1263C16.4333 46.0818 16.3146 46.0343 16.196 45.984C15.717 45.7913 15.247 45.5788 14.7873 45.352C14.6715 45.2941 14.5557 45.2371 14.4416 45.1773C13.9965 44.9496 13.5607 44.7048 13.1322 44.4429C13.0182 44.3755 12.9051 44.3053 12.7929 44.2332C11.4789 43.4038 10.2514 42.4293 9.13327 41.3275C9.03852 41.2374 8.94658 41.1453 8.85745 41.0504C8.76551 40.9584 8.67357 40.8625 8.58623 40.7686C8.49429 40.6765 8.40696 40.5816 8.31962 40.4839C8.24975 40.409 8.17894 40.3293 8.11086 40.2514C7.83044 39.9364 7.56195 39.6147 7.29986 39.2845C7.13524 39.0795 6.97531 38.8698 6.82083 38.6582C6.74082 38.55 6.66362 38.4428 6.58821 38.3356C6.51101 38.2284 6.43373 38.1183 6.36113 38.0082C6.29126 37.9085 6.22318 37.808 6.15791 37.7055C6.0779 37.5859 6.0007 37.4625 5.92342 37.3411C5.85074 37.2282 5.78087 37.1162 5.71287 37.0014C5.6402 36.8866 5.5722 36.7718 5.50693 36.657C5.30371 36.3096 5.10969 35.9576 4.92394 35.595C4.8614 35.4745 4.80073 35.355 4.74279 35.2326C4.68025 35.113 4.62145 34.9896 4.56624 34.8672C4.5083 34.7429 4.45037 34.6195 4.3943 34.4952L16.8471 20.2107C20.914 16.0136 27.5316 16.0136 31.5977 20.2107L44.0532 34.4952C43.7865 35.0874 43.4941 35.6691 43.1796 36.2365C43.129 36.3267 43.0775 36.4168 43.0242 36.507C42.9782 36.5868 42.9323 36.6645 42.8862 36.7443C42.8062 36.8819 42.7235 37.0166 42.6398 37.1513C40.4496 40.6767 37.3683 43.4998 33.7272 45.3132C30.7545 46.7992 27.5555 47.5536 24.2196 47.5536C23.9796 47.5536 23.7423 47.5489 23.5051 47.5413M2.36952 24.999C2.36952 12.5631 12.1723 2.44831 24.2214 2.44831C36.2705 2.44831 46.0778 12.5631 46.0778 24.999C46.0778 27.4074 45.7174 29.758 45.0002 32.0117L33.2729 19.9108C28.2819 14.76 20.1637 14.76 15.1726 19.9108L3.44535 32.0146C2.72909 29.7609 2.36859 27.4085 2.36859 25M0 24.999C0 28.0992 0.542512 31.1169 1.60913 33.977C1.69834 34.22 1.79301 34.4619 1.89049 34.7011C5.688 43.9942 14.4527 50 24.2214 50C27.9196 50 31.4661 49.163 34.7625 47.5119C38.7945 45.503 42.2077 42.3781 44.6352 38.4713C45.3781 37.2746 46.0273 36.0059 46.557 34.6992L46.5836 34.6318C46.6682 34.4268 46.7482 34.2218 46.8237 34.0169C47.9013 31.1435 48.4474 28.1135 48.4474 24.999C48.4474 11.2146 37.5799 0 24.2215 0C10.863 0 7.79808e-05 11.2137 7.79808e-05 24.999H0Z" fill="url(#paint0_linear_872_120)"/>
<path d="M83.9444 37.1648H80.6137C78.8409 32.4934 77.0911 27.8536 75.349 23.2376C73.6069 18.6295 71.8725 13.9818 70.1304 9.31036L59.0638 37.1649H57.7131L70.4451 4.9952H71.8418C73.8525 10.3793 75.8633 15.7395 77.8739 21.0761C79.8846 26.4126 81.9107 31.773 83.9444 37.157" fill="#EFE1CA"/>
<path d="M100.23 3.83125C102.478 3.83125 104.581 4.26671 106.53 5.12976C108.48 5.99281 110.191 7.1884 111.657 8.70066L110.352 10.2763C109.094 8.70066 107.589 7.44174 105.855 6.51536C104.113 5.58897 102.24 5.12188 100.23 5.12188C98.2189 5.12188 96.6148 5.52572 94.9649 6.32535C93.3149 7.13295 91.872 8.2256 90.6441 9.61916C89.4162 11.0126 88.4492 12.6437 87.7432 14.5202C87.0371 16.3887 86.6841 18.3999 86.6841 20.5298C86.6841 22.6596 87.0371 24.6628 87.7432 26.5156C88.4492 28.3762 89.4162 29.9994 90.6441 31.3929C91.872 32.7863 93.3148 33.887 94.9649 34.6867C96.6148 35.4943 98.3723 35.8902 100.23 35.8902C102.087 35.8902 103.721 35.5101 105.318 34.75C106.906 33.9899 108.311 32.9606 109.523 31.6621C110.736 30.3636 111.718 28.8275 112.47 27.0698C113.222 25.3042 113.637 23.4039 113.729 21.3612H100.23V20.0627H116.43V20.5298C116.43 22.8181 116.001 24.9796 115.149 27.0066C114.297 29.0335 113.138 30.8071 111.687 32.3193C110.229 33.8396 108.526 35.0352 106.561 35.914C104.596 36.7929 102.486 37.2362 100.237 37.2362C97.9886 37.2362 95.8781 36.7929 93.9134 35.914C91.9488 35.0351 90.2373 33.8316 88.7869 32.3193C87.3287 30.8071 86.1776 29.0335 85.3257 27.0066C84.4738 24.9796 84.0441 22.8181 84.0441 20.5298C84.0441 18.2416 84.4738 16.0326 85.3257 14.0056C86.1776 11.9787 87.3364 10.213 88.7869 8.7166C90.245 7.21222 91.9488 6.0246 93.9134 5.1457C95.8781 4.2668 97.9886 3.82344 100.237 3.82344" fill="#EFE1CA"/>
<path d="M119.899 4.99512H130.429C132.562 4.99512 134.565 5.42271 136.461 6.2699C138.349 7.12498 139.999 8.27308 141.411 9.72998C142.823 11.1869 143.936 12.8892 144.764 14.8369C145.593 16.7846 146 18.875 146 21.0998C146 23.3246 145.586 25.4149 144.764 27.3627C143.936 29.3104 142.823 31.0128 141.411 32.4696C139.998 33.9265 138.349 35.0745 136.461 35.9297C134.573 36.7848 132.562 37.2044 130.429 37.2044H119.899V4.99512ZM123 6.29364V35.9059H128.94C130.92 35.9059 132.769 35.5179 134.496 34.7421C136.223 33.9661 137.735 32.9051 139.039 31.5591C140.344 30.2131 141.372 28.6454 142.124 26.8481C142.877 25.0508 143.253 23.1347 143.253 21.0919C143.253 19.0491 142.877 17.133 142.124 15.3357C141.372 13.5384 140.344 11.9707 139.039 10.6247C137.735 9.27866 136.223 8.21763 134.496 7.44174C132.769 6.66577 130.92 6.27787 128.94 6.27787H123V6.29364Z" fill="#EFE1CA"/>
<path d="M63.4689 44.5758V47.7033H62.9317L62.8779 46.4919C62.4635 47.2836 61.7267 47.8062 60.683 47.8062C58.9869 47.8062 57.713 46.4444 57.713 44.7896C57.713 43.1348 59.056 41.6859 60.7214 41.6859C62.3867 41.6859 63.1235 42.4223 63.4458 43.7524H62.732C62.4481 42.7944 61.5732 42.3351 60.729 42.3351C59.4014 42.3351 58.3807 43.3644 58.3807 44.7975C58.3807 46.2306 59.3323 47.1728 60.6754 47.1728C62.0184 47.1728 62.594 46.3256 62.7475 45.2251V44.5916H63.4535L63.4689 44.5758V44.5758Z" fill="#EFE1CA"/>
<path d="M71.1127 44.7421C71.1127 46.4444 69.7773 47.8062 68.1273 47.8062C66.4773 47.8062 65.142 46.4444 65.142 44.7421C65.142 43.0398 66.4773 41.678 68.1273 41.678C69.7773 41.678 71.1127 43.0398 71.1127 44.7421ZM70.4373 44.7421C70.4373 43.404 69.4242 42.3193 68.1273 42.3193C66.8304 42.3193 65.8173 43.3961 65.8173 44.7421C65.8173 46.0881 66.8304 47.1649 68.1273 47.1649C69.4242 47.1649 70.4373 46.0881 70.4373 44.7421Z" fill="#EFE1CA"/>
<path d="M76.6843 47.0699V47.7034H72.8547V41.7809H73.5224V47.0621H76.6843V47.0699Z" fill="#EFE1CA"/>
<path d="M83.1999 44.7025C83.1999 46.4602 81.9413 47.7033 80.1685 47.7033H78.1501V41.7808H80.1685C81.9414 41.7808 83.1999 42.9923 83.1999 44.6946V44.7025ZM82.5169 44.7025C82.5169 43.3803 81.5346 42.4222 80.1685 42.4222H78.8179V47.0699H80.1685C81.5346 47.0699 82.5169 46.0881 82.5169 44.7025Z" fill="#EFE1CA"/>
<path d="M91.9104 47.7034L91.1583 47.0066C90.6595 47.5371 90.0532 47.8142 89.3088 47.8142C88.0885 47.8142 87.275 47.0937 87.275 46.0644C87.275 45.0351 87.7739 44.7025 88.4415 44.4254C88.0808 43.9979 87.912 43.6416 87.912 43.2061C87.912 42.2956 88.618 41.6463 89.5851 41.6463C90.5521 41.6463 91.1353 42.2401 91.2504 43.2298H90.6058C90.5214 42.5727 90.1146 42.2401 89.5774 42.2401C89.0403 42.2401 88.5798 42.644 88.5798 43.222C88.5798 43.8 89.0862 44.2829 90.0456 45.1539L91.0969 46.1358L91.9948 44.8056H92.6702L91.5651 46.4763C91.5497 46.4921 91.5421 46.508 91.5191 46.5396L92.7701 47.6956H91.9105V47.7035L91.9104 47.7034ZM90.7362 46.6107L89.5006 45.4706C89.255 45.241 89.0401 45.043 88.8482 44.8609C88.2957 45.0905 87.9119 45.5022 87.9119 46.0644C87.9119 46.6265 88.4875 47.2282 89.3241 47.2282C90.1606 47.2282 90.3371 47.0066 90.7362 46.6107Z" fill="#EFE1CA"/>
<path d="M101.964 44.7025C101.964 46.4602 100.705 47.7033 98.9326 47.7033H96.9142V41.7808H98.9326C100.705 41.7808 101.964 42.9923 101.964 44.6946V44.7025ZM101.281 44.7025C101.281 43.3803 100.299 42.4222 98.9326 42.4222H97.5819V47.0699H98.9326C100.299 47.0699 101.281 46.0881 101.281 44.7025Z" fill="#EFE1CA"/>
<path d="M104.374 41.7888V47.7113H103.706V41.7888H104.374Z" fill="#EFE1CA"/>
<path d="M110.206 46.0486H107.244L106.538 47.7034H105.824L108.418 41.7809H109.047L111.641 47.7034H110.928L110.222 46.0486H110.206ZM109.938 45.431L108.725 42.5965L107.513 45.431H109.945H109.938Z" fill="#EFE1CA"/>
<path d="M118.687 47.7034H118.019V43.2932L116.1 46.5711H115.663L113.729 43.2694L113.744 47.7034H113.077V41.7809H113.583L115.878 45.7318L118.173 41.7809H118.679V47.7034H118.687Z" fill="#EFE1CA"/>
<path d="M126.392 44.7421C126.392 46.4444 125.056 47.8062 123.406 47.8062C121.757 47.8062 120.421 46.4444 120.421 44.7421C120.421 43.0398 121.757 41.678 123.406 41.678C125.056 41.678 126.392 43.0398 126.392 44.7421ZM125.716 44.7421C125.716 43.404 124.703 42.3193 123.406 42.3193C122.11 42.3193 121.097 43.3961 121.097 44.7421C121.097 46.0881 122.11 47.1649 123.406 47.1649C124.703 47.1649 125.716 46.0881 125.716 44.7421Z" fill="#EFE1CA"/>
<path d="M133.03 41.7888V47.7113H132.478L128.809 43.0477V47.7113H128.142V41.7888H128.679L132.363 46.5157V41.7888H133.03Z" fill="#EFE1CA"/>
<path d="M140.068 44.7025C140.068 46.4602 138.809 47.7033 137.036 47.7033H135.018V41.7808H137.036C138.809 41.7808 140.068 42.9923 140.068 44.6946V44.7025ZM139.385 44.7025C139.385 43.3803 138.402 42.4222 137.036 42.4222H135.686V47.0699H137.036C138.402 47.0699 139.385 46.0881 139.385 44.7025Z" fill="#EFE1CA"/>
<path d="M145.992 43.412H145.325C145.194 42.7073 144.718 42.2718 143.782 42.2718C142.846 42.2718 142.393 42.6598 142.393 43.3328C142.393 44.0057 142.754 44.1483 143.437 44.2908L144.373 44.4729C145.401 44.6788 145.985 45.1617 145.985 46.0327C145.985 46.9038 145.125 47.8063 143.836 47.8063C142.547 47.8063 141.564 47.0858 141.442 45.8031H142.102C142.24 46.6899 142.854 47.1887 143.874 47.1887C144.895 47.1887 145.31 46.777 145.31 46.1119C145.31 45.4469 144.995 45.2726 144.273 45.146L143.199 44.9242C142.178 44.7263 141.687 44.1879 141.687 43.3724C141.687 42.5569 142.516 41.678 143.744 41.678C144.972 41.678 145.854 42.1926 145.993 43.412H145.992Z" fill="#EFE1CA"/>
</g>
<defs>
<linearGradient id="paint0_linear_872_120" x1="0" y1="25" x2="48.4474" y2="25" gradientUnits="userSpaceOnUse">
<stop stop-color="#F9C5C5"/>
<stop offset="1" stop-color="#DD8796"/>
</linearGradient>
<clipPath id="clip0_872_120">
<rect width="146" height="50" fill="white"/>
</clipPath>
</defs>
</svg>
